# Blender v2.82 (sub 7) OBJ File: 'model.blend'
# www.blender.org
mtllib car.mtl
o Cube
v 1.759244 -0.634324 1.213092
v 1.759244 -0.634324 0.014185
v 1.759244 0.634324 1.213092
v 1.759244 0.634324 0.014185
v 3.027892 -0.634324 0.448260
v 3.027892 -0.634324 -0.031109
v 3.027892 0.634324 0.448260
v 3.027892 0.634324 0.014185
v -0.561362 -0.634325 1.282833
v -0.561362 -0.634324 0.014185
v -0.561362 0.634324 1.239817
v -0.561362 0.634324 0.014185
v 1.759244 -0.634324 1.373550
v 1.759244 0.634324 1.373550
v -0.561362 -0.634325 1.373550
v -0.561362 0.634324 1.373550
v 1.759244 0.634324 1.213092
v 1.759244 0.634324 0.014185
v -0.561362 0.634324 1.239817
v -0.561362 0.634324 0.014185
v 1.759244 0.634324 0.613638
v -0.561362 0.634324 0.627001
v 0.598941 0.634324 0.014185
v 0.598941 0.634324 1.226454
v 0.598941 0.634324 0.620320
v 1.759244 0.634324 0.313912
v -0.561362 0.634324 0.320593
v 0.018789 0.634324 0.014185
v 1.179092 0.634324 1.219773
v 1.759244 0.634324 0.913365
v -0.561362 0.634324 0.933409
v 1.179092 0.634324 0.014185
v 0.018789 0.634324 1.233136
v 0.018789 0.634324 0.623660
v 1.179092 0.634324 0.616979
v 0.598941 0.634324 0.923387
v 0.598941 0.634324 0.317252
v 1.179092 0.634324 0.315582
v 1.179092 0.634324 0.918376
v 0.018789 0.634324 0.928398
v 0.018789 0.634324 0.318923
v 1.759244 0.874725 0.014185
v 1.759244 0.874725 0.313912
v 1.179092 0.874725 0.014185
v 1.179092 0.874725 0.315582
v -0.561362 0.816145 0.014185
v -0.561362 0.816145 0.320593
v 0.018789 0.816145 0.014185
v 0.018789 0.816145 0.318923
v 1.759244 -0.634324 0.613638
v -0.561362 -0.634324 0.648509
v 0.598941 -0.634324 1.247962
v 0.598941 -0.634324 0.014185
v 0.598941 -0.634324 0.631074
v 1.759244 -0.634324 0.313912
v -0.561362 -0.634324 0.331347
v 0.018789 -0.634324 1.265398
v 1.179093 -0.634324 0.014185
v 1.759244 -0.634324 0.913365
v -0.561362 -0.634324 0.965671
v 1.179093 -0.634324 1.230527
v 0.018789 -0.634324 0.014185
v 0.018789 -0.634324 0.639791
v 1.179093 -0.634324 0.622356
v 0.598941 -0.634324 0.322629
v 0.598941 -0.634324 0.939518
v 1.179093 -0.634324 0.926441
v 1.179093 -0.634324 0.318270
v 0.018789 -0.634324 0.326988
v 0.018789 -0.634324 0.952595
v 1.759244 -0.877813 0.014185
v 1.759244 -0.877813 0.313912
v 1.179093 -0.877813 0.014185
v 1.179093 -0.877813 0.318270
v -0.561362 -0.864862 0.014185
v -0.561362 -0.864862 0.331347
v 0.018790 -0.864862 0.014185
v 0.018790 -0.864862 0.326988
vt 0.625000 0.500000
vt 0.875000 0.500000
vt 0.875000 0.750000
vt 0.625000 0.750000
vt 0.375000 0.750000
vt 0.625000 1.000000
vt 0.375000 1.000000
vt 0.375000 0.000000
vt 0.625000 0.000000
vt 0.625000 0.250000
vt 0.375000 0.250000
vt 0.125000 0.500000
vt 0.375000 0.500000
vt 0.125000 0.750000
vt 0.375000 0.750000
vt 0.375000 0.750000
vt 0.375000 0.750000
vt 0.375000 0.750000
vt 0.375000 0.750000
vt 0.375000 0.750000
vt 0.562500 0.500000
vt 0.500000 0.500000
vt 0.437500 0.500000
vt 0.375000 0.500000
vt 0.437500 0.500000
vt 0.500000 0.500000
vt 0.562500 0.500000
vt 0.625000 0.500000
vt 0.625000 0.750000
vt 0.562500 0.500000
vt 0.625000 0.500000
vt 0.375000 0.500000
vt 0.375000 0.500000
vt 0.375000 0.500000
vt 0.625000 0.500000
vt 0.625000 0.750000
vt 0.625000 0.500000
vt 0.625000 0.750000
vt 0.625000 0.500000
vt 0.625000 0.500000
vt 0.375000 0.750000
vt 0.375000 0.750000
vt 0.625000 0.750000
vt 0.625000 0.750000
vt 0.625000 0.750000
vt 0.625000 0.750000
vt 0.625000 0.750000
vt 0.437500 0.750000
vt 0.500000 0.750000
vt 0.562500 0.750000
vt 0.562500 0.750000
vt 0.500000 0.750000
vt 0.437500 0.750000
vt 0.562500 0.750000
vt 0.500000 0.750000
vt 0.562500 0.750000
vt 0.500000 0.750000
vt 0.500000 0.750000
vt 0.562500 0.750000
vt 0.437500 0.750000
vt 0.437500 0.750000
vt 0.375000 0.750000
vt 0.437500 0.750000
vt 0.437500 0.750000
vt 0.375000 0.750000
vt 0.437500 0.750000
vt 0.437500 0.750000
vt 0.437500 0.750000
vt 0.437500 0.500000
vt 0.500000 0.500000
vt 0.437500 0.500000
vt 0.500000 0.500000
vt 0.500000 0.500000
vt 0.437500 0.500000
vt 0.562500 0.500000
vt 0.562500 0.500000
vt 0.437500 0.500000
vt 0.437500 0.500000
vt 0.375000 0.500000
vt 0.437500 0.500000
vt 0.375000 0.500000
vt 0.375000 0.500000
vt 0.375000 0.500000
vt 0.437500 0.500000
vn 0.5163 -0.0000 0.8564
vn -0.0000 1.0000 0.0000
vn 1.0000 0.0000 0.0000
vn -0.0178 0.0178 -0.9997
vn 0.0000 0.0000 -1.0000
vn 0.0000 -1.0000 -0.0000
vn -1.0000 0.0000 0.0000
vn 0.0000 -0.0000 1.0000
vn -0.0015 -0.4890 0.8723
vn 0.0029 0.0000 1.0000
vn 0.0075 0.0000 1.0000
usemtl Material
s off
f 1/1/1 5/2/1 7/3/1 3/4/1
f 4/5/2 3/4/2 7/6/2 8/7/2
f 8/8/3 7/9/3 5/10/3 6/11/3
f 6/12/4 2/13/4 4/5/4 8/14/4
f 4/5/5 12/15/5 20/16/5 28/17/5 23/18/5 32/19/5 18/20/5
f 6/11/6 5/10/6 1/1/6 59/21/6 50/22/6 55/23/6 2/13/6
f 10/24/7 56/25/7 51/26/7 60/27/7 9/28/7 11/29/7 12/15/7
f 70/30/6 57/31/6 9/28/6 60/27/6
f 4/5/5 2/13/5 58/32/5 53/33/5 62/34/5 10/24/5 12/15/5
f 11/29/7 9/28/7 15/35/7 16/36/7
f 13/37/8 14/38/8 16/36/8 15/35/8
f 3/4/2 11/29/2 16/36/2 14/38/2
f 1/1/3 3/4/3 14/38/3 13/37/3
f 9/28/6 57/31/6 52/39/6 61/40/6 1/1/6 13/37/6 15/35/6
f 28/17/5 20/16/5 46/41/5 48/42/5
f 11/29/9 3/4/9 17/43/9 29/44/9 24/45/9 33/46/9 19/47/9
f 3/4/6 4/5/6 18/20/6 26/48/6 21/49/6 30/50/6 17/43/6
f 12/15/6 11/29/6 19/47/6 31/51/6 22/52/6 27/53/6 20/16/6
f 40/54/2 34/55/2 22/52/2 31/51/2
f 39/56/2 35/57/2 25/58/2 36/59/2
f 38/60/2 32/19/2 23/18/2 37/61/2
f 35/57/2 38/60/2 37/61/2 25/58/2
f 21/49/2 26/48/2 38/60/2 35/57/2
f 26/48/3 18/20/3 42/62/3 43/63/3
f 29/44/2 39/56/2 36/59/2 24/45/2
f 17/43/2 30/50/2 39/56/2 29/44/2
f 30/50/2 21/49/2 35/57/2 39/56/2
f 33/46/2 40/54/2 31/51/2 19/47/2
f 24/45/2 36/59/2 40/54/2 33/46/2
f 36/59/2 25/58/2 34/55/2 40/54/2
f 34/55/2 41/64/2 27/53/2 22/52/2
f 25/58/2 37/61/2 41/64/2 34/55/2
f 37/61/2 23/18/2 28/17/2 41/64/2
f 43/63/2 42/62/2 44/65/2 45/66/2
f 18/20/5 32/19/5 44/65/5 42/62/5
f 32/19/7 38/60/7 45/66/7 44/65/7
f 38/60/10 26/48/10 43/63/10 45/66/10
f 49/67/2 48/42/2 46/41/2 47/68/2
f 27/53/10 41/64/10 49/67/10 47/68/10
f 20/16/7 27/53/7 47/68/7 46/41/7
f 41/64/3 28/17/3 48/42/3 49/67/3
f 69/69/6 63/70/6 51/26/6 56/25/6
f 68/71/6 64/72/6 54/73/6 65/74/6
f 67/75/6 61/40/6 52/39/6 66/76/6
f 64/72/6 67/75/6 66/76/6 54/73/6
f 50/22/6 59/21/6 67/75/6 64/72/6
f 59/21/6 1/1/6 61/40/6 67/75/6
f 58/32/6 68/71/6 65/74/6 53/33/6
f 55/23/11 68/71/11 74/77/11 72/78/11
f 55/23/6 50/22/6 64/72/6 68/71/6
f 56/25/7 10/24/7 75/79/7 76/80/7
f 53/33/6 65/74/6 69/69/6 62/34/6
f 65/74/6 54/73/6 63/70/6 69/69/6
f 63/70/6 70/30/6 60/27/6 51/26/6
f 54/73/6 66/76/6 70/30/6 63/70/6
f 66/76/6 52/39/6 57/31/6 70/30/6
f 71/81/6 72/78/6 74/77/6 73/82/6
f 58/32/5 2/13/5 71/81/5 73/82/5
f 68/71/7 58/32/7 73/82/7 74/77/7
f 2/13/3 55/23/3 72/78/3 71/81/3
f 77/83/6 78/84/6 76/80/6 75/79/6
f 62/34/3 69/69/3 78/84/3 77/83/3
f 69/69/11 56/25/11 76/80/11 78/84/11
f 10/24/5 62/34/5 77/83/5 75/79/5
